<svg width="37" height="37" viewBox="0 0 37 37" fill="none" xmlns="http://www.w3.org/2000/svg">
<path d="M31 3C31 2.20443 30.6839 1.44137 30.1215 0.878537C29.5587 0.316039 28.7956 0 28 0C27.2044 0 26.4414 0.316073 25.8785 0.878537C25.316 1.4413 25 2.20443 25 3C25 3.79557 25.3161 4.55863 25.8785 5.12146C26.4413 5.68396 27.2044 6 28 6C28.7953 5.99893 29.5579 5.68259 30.1204 5.12037C30.6826 4.55787 30.9989 3.79529 31 3ZM28 4.8C27.5227 4.8 27.0646 4.61036 26.7272 4.27286C26.3897 3.93536 26.2 3.47729 26.2 3.00003C26.2 2.52278 26.3897 2.06465 26.7272 1.72721C27.0647 1.38977 27.5227 1.20007 28 1.20007C28.4773 1.20007 28.9354 1.38971 29.2728 1.72721C29.6103 2.06471 29.8 2.52278 29.8 3.00003C29.8 3.47729 29.6103 3.93542 29.2728 4.27286C28.9353 4.6103 28.4773 4.8 28 4.8Z" fill="white"/>
<path d="M14 15C14 14.2044 13.6839 13.4414 13.1215 12.8785C12.5587 12.316 11.7956 12 11 12C10.2044 12 9.44137 12.3161 8.87854 12.8785C8.31604 13.4413 8 14.2044 8 15C8 15.7956 8.31607 16.5586 8.87854 17.1215C9.4413 17.684 10.2044 18 11 18C11.7953 17.9989 12.5579 17.6826 13.1204 17.1204C13.6826 16.5579 13.9989 15.7953 14 15ZM11 16.8C10.5227 16.8 10.0646 16.6104 9.72718 16.2729C9.38974 15.9354 9.20003 15.4773 9.20003 15C9.20003 14.5228 9.38967 14.0647 9.72718 13.7272C10.0647 13.3898 10.5227 13.2001 11 13.2001C11.4773 13.2001 11.9354 13.3897 12.2728 13.7272C12.6103 14.0647 12.8 14.5228 12.8 15C12.8 15.4773 12.6103 15.9354 12.2728 16.2729C11.9353 16.6103 11.4773 16.8 11 16.8Z" fill="white"/>
<path d="M35.1112 6.44735H23.7778V2.81577C23.7778 2.167 23.4177 1.56768 22.8333 1.24319C22.249 0.918938 21.5288 0.918938 20.9444 1.24319C20.3601 1.5677 20 2.16699 20 2.81577V8.26314C20 8.74465 20.199 9.20673 20.5532 9.54713C20.9073 9.88753 21.388 10.0789 21.8889 10.0789H23.7778V12.9042L21.637 15.6581C21.3925 15.9729 21.2598 16.355 21.2592 16.7476V23.3947C21.2592 23.5552 21.3256 23.7092 21.4436 23.8227C21.5617 23.9362 21.7219 24 21.8889 24H24.4074C24.5744 24 24.7346 23.9362 24.8526 23.8227C24.9707 23.7092 25.037 23.5552 25.037 23.3947V17.3664C25.0367 17.2143 25.0963 17.0678 25.2031 16.956L26.572 15.5263H28.1852V23.3947C28.1852 23.5552 28.2515 23.7093 28.3695 23.8227C28.4876 23.9362 28.6478 24 28.8148 24H31.3333C31.5003 24 31.6605 23.9362 31.7786 23.8227C31.8966 23.7093 31.9629 23.5552 31.9629 23.3947V10.0789H33.2222V12.5C33.2222 13.1487 33.5823 13.7481 34.1667 14.0726C34.751 14.3968 35.4712 14.3968 36.0556 14.0726C36.6399 13.748 37 13.1488 37 12.5V8.26313C37 7.78163 36.801 7.31955 36.4468 6.97915C36.0927 6.63874 35.612 6.44735 35.1112 6.44735ZM35.7408 12.5C35.7408 12.8342 35.4589 13.1053 35.1112 13.1053C34.7635 13.1053 34.4815 12.8342 34.4815 12.5V9.47367C34.4815 9.31317 34.4152 9.15915 34.2971 9.04566C34.1791 8.93218 34.0189 8.86841 33.8519 8.86841H31.3334C30.9857 8.86841 30.7037 9.13943 30.7037 9.47367V22.7895H29.4445V14.921C29.4445 14.7605 29.3781 14.6065 29.2601 14.493C29.142 14.3796 28.9818 14.3158 28.8148 14.3158H26.2963C26.1204 14.3161 25.9526 14.3868 25.8337 14.5114L24.2773 16.1364H24.277C23.9554 16.4712 23.7769 16.9105 23.7778 17.3664V22.7894H22.5185V16.746C22.5185 16.6149 22.5627 16.4874 22.6444 16.3828L24.9111 13.4684C24.9929 13.3635 25.0371 13.2362 25.0371 13.1052V9.47361C25.0371 9.31311 24.9707 9.15909 24.8527 9.0456C24.7346 8.93211 24.5744 8.86834 24.4074 8.86834H21.8889C21.5412 8.86834 21.2593 8.59732 21.2593 8.26308V2.8157C21.2593 2.48146 21.5412 2.21044 21.8889 2.21044C22.2366 2.21044 22.5185 2.48146 22.5185 2.8157V7.05255C22.5185 7.21305 22.5849 7.36707 22.7029 7.48056C22.821 7.59405 22.9812 7.65782 23.1482 7.65782H35.1112C35.2781 7.65782 35.4383 7.72159 35.5564 7.83507C35.6745 7.94856 35.7408 8.10258 35.7408 8.26308L35.7408 12.5Z" fill="white"/>
<path d="M17.6598 13.0543C17.1292 12.9193 16.5664 13.0391 16.134 13.3788C15.7017 13.7185 15.4472 14.2404 15.4443 14.7948V18.3956H5.96292C5.17746 18.3967 4.4243 18.7131 3.86876 19.2755C3.31348 19.8381 3.00108 20.6009 3 21.3964V24.3971C3 24.8745 3.1873 25.3327 3.52063 25.6702C3.85396 26.0077 4.30636 26.1975 4.77772 26.1975H7.74064V27.9799C7.74064 28.0354 7.74831 28.0903 7.76312 28.1436L8.88002 32.1201L6.63376 36.0998C6.52768 36.2857 6.52794 36.5148 6.63402 36.7005C6.74011 36.8861 6.93613 37.0005 7.14803 37H9.51837C9.73053 37.0005 9.92656 36.8859 10.0326 36.6999L12.403 32.4989C12.4824 32.3588 12.5025 32.1922 12.4588 32.0368L11.4893 28.598H12.6467L13.6541 31.6587L13.0787 36.3248C13.0575 36.4957 13.1096 36.6675 13.2221 36.7966C13.3345 36.926 13.4964 37 13.6665 37H16.0368C16.3355 37 16.5876 36.7746 16.6247 36.4743L17.2172 31.6732C17.227 31.5955 17.2217 31.5164 17.2014 31.4409L15.4443 24.9167V21.9964H17.222C17.6934 21.9964 18.1458 21.8067 18.4791 21.4691C18.8124 21.1316 18.9997 20.6734 18.9997 20.196V14.8607C19.0066 14.4515 18.8786 14.0518 18.6357 13.7247C18.3931 13.3976 18.0498 13.1618 17.6598 13.0543ZM17.8146 20.1957C17.8146 20.3548 17.7522 20.5076 17.6411 20.6201C17.53 20.7326 17.3792 20.7958 17.222 20.7958H14.8517C14.5244 20.7958 14.2591 21.0646 14.2591 21.396V24.9968C14.2591 25.0501 14.266 25.1032 14.2797 25.1546L16.0268 31.6415L15.5136 35.7994H14.338L14.847 31.6729C14.8583 31.5839 14.8493 31.4936 14.821 31.4087L13.6359 27.8078C13.5552 27.563 13.329 27.3977 13.074 27.3974H10.7036C10.5177 27.3974 10.3425 27.4855 10.2306 27.6358C10.1185 27.7861 10.0827 27.9809 10.1335 28.162L11.2504 32.123L9.17483 35.7994H8.16744L10.0307 32.4986H10.0304C10.1095 32.3585 10.1296 32.1924 10.0862 32.037L8.9259 27.8955V26.1971C9.39679 26.1947 9.84756 26.0042 10.1804 25.6672C10.5132 25.3301 10.7012 24.8736 10.7036 24.3967C10.7036 23.9193 10.5163 23.4611 10.183 23.1236C9.84967 22.7861 9.39727 22.5963 8.92591 22.5963V21.396C8.92591 21.2369 8.86348 21.0842 8.75237 20.9716C8.64126 20.8591 8.49047 20.7959 8.33333 20.7959H6.55558C6.2413 20.7959 5.93971 20.9223 5.71749 21.1474C5.49528 21.3724 5.37041 21.6779 5.37041 21.9962V23.1965C5.37041 23.3556 5.43284 23.5083 5.54395 23.6208C5.65506 23.7334 5.80585 23.7966 5.96299 23.7966H8.92591C9.08305 23.7966 9.23384 23.8598 9.34495 23.9723C9.45606 24.0849 9.51849 24.2376 9.51849 24.3967C9.51876 24.5588 9.45289 24.7137 9.33649 24.8246C9.22855 24.9361 9.08014 24.9982 8.92591 24.9969H4.77782C4.45058 24.9969 4.18524 24.7282 4.18524 24.3967V21.396C4.18524 20.9186 4.37254 20.4604 4.70587 20.1229C5.0392 19.7854 5.4916 19.5956 5.96296 19.5956H16.0369C16.194 19.5956 16.3448 19.5324 16.4559 19.4199C16.567 19.3073 16.6295 19.1546 16.6295 18.9955V14.7945C16.6292 14.6329 16.6948 14.4781 16.8107 14.3672C16.9549 14.2155 17.1699 14.1571 17.3697 14.2147C17.6443 14.3042 17.8263 14.5684 17.8146 14.8604L17.8146 20.1957ZM7.74068 22.5963H6.55551V21.9961H7.74068V22.5963Z" fill="white"/>
<path d="M4.41936 9.60633C4.51395 9.84404 4.74414 10 5 10C5.25586 10 5.48605 9.84404 5.58064 9.60633L6.73129 6.73147L9.60631 5.58089C9.84403 5.48631 10 5.25613 10 5.00029C10 4.74444 9.84403 4.51454 9.60631 4.41968L6.73129 3.26852L5.58064 0.393673C5.48605 0.155963 5.25586 0 5 0C4.74414 0 4.51395 0.155963 4.41936 0.393673L3.26871 3.26852L0.393695 4.41911C0.155973 4.51369 0 4.74387 0 4.99971C0 5.25556 0.155973 5.48574 0.393695 5.58032L3.26871 6.7309L4.41936 9.60633ZM3.98186 4.33038C4.1409 4.26677 4.26702 4.14067 4.33063 3.98163L5 2.30736L5.66937 3.98163C5.73298 4.14067 5.8591 4.26677 6.01814 4.33038L7.69251 4.99971L6.01814 5.66904C5.8591 5.73266 5.73298 5.85876 5.66937 6.0178L5 7.69207L4.33063 6.0178C4.26702 5.85876 4.1409 5.73265 3.98186 5.66904L2.30749 4.99971L3.98186 4.33038Z" fill="white"/>
<path d="M31.6063 31.4194L28.7313 30.2687L27.5806 27.3937C27.4861 27.156 27.2559 27 27 27C26.7441 27 26.5142 27.156 26.4194 27.3937L25.2687 30.2687L22.3937 31.4194C22.156 31.5139 22 31.7441 22 32C22 32.2559 22.156 32.4861 22.3937 32.5806L25.2687 33.7313L26.4194 36.6063C26.5142 36.844 26.7441 37 27 37C27.2559 37 27.4861 36.844 27.5806 36.6063L28.7313 33.7313L31.6063 32.5806C31.844 32.4861 32 32.2559 32 32C32 31.7441 31.844 31.5139 31.6063 31.4194ZM28.0176 32.6694C27.8585 32.733 27.7324 32.8591 27.6688 33.0181L26.9994 34.6925L26.3301 33.0181C26.2664 32.8591 26.1403 32.733 25.9813 32.6694L24.3069 32L25.9813 31.3306C26.1403 31.267 26.2664 31.1409 26.3301 30.9819L26.9994 29.3075L27.6688 30.9819C27.7324 31.1409 27.8585 31.267 28.0176 31.3306L29.6919 32L28.0176 32.6694Z" fill="white"/>
<path d="M15.5 10C15.3268 10 15.1606 9.91743 15.0382 9.77014L13.1911 7.55372L13.1913 7.55406C12.9362 7.24793 12.9362 6.75181 13.1913 6.44568L15.0384 4.22925L15.0382 4.2296C15.2933 3.92347 15.7067 3.92347 15.9618 4.2296L17.8089 6.44603L17.8087 6.44568C18.0638 6.75181 18.0638 7.24793 17.8087 7.55406L15.9616 9.77049L15.9618 9.77014C15.8394 9.91743 15.6732 10 15.5 10ZM14.5766 6.99987L15.5 8.1079L16.4234 6.99987L15.5 5.89184L14.5766 6.99987Z" fill="white"/>
<path d="M34.5 30C34.3268 30 34.1606 29.9312 34.0382 29.8084L32.1911 27.9614L32.1913 27.9617C31.9362 27.7066 31.9362 27.2932 32.1913 27.0381L34.0384 25.191L34.0382 25.1913C34.2933 24.9362 34.7067 24.9362 34.9618 25.1913L36.8089 27.0384L36.8087 27.0381C37.0638 27.2932 37.0638 27.7066 36.8087 27.9617L34.9616 29.8087L34.9618 29.8084C34.8394 29.9312 34.6732 30 34.5 30ZM33.5766 27.4999L34.5 28.4233L35.4234 27.4999L34.5 26.5765L33.5766 27.4999Z" fill="white"/>
</svg>
