<svg width="37" height="37" viewBox="0 0 37 37" fill="none" xmlns="http://www.w3.org/2000/svg">
<g id="illustration/darkmode/land">
<path id="Vector" d="M6.4574 28.1104C5.96617 27.8587 5.36374 28.0519 5.1106 28.5425C4.92564 28.902 4.97582 29.3383 5.23753 29.6469C5.49925 29.9551 5.92084 30.0757 6.30579 29.9521C6.69068 29.8285 6.96364 29.4851 6.99658 29.0818C7.02991 28.6789 6.81722 28.2954 6.4574 28.1104Z" fill="white"/>
<path id="Vector_2" d="M7.69387 29.048C7.30916 29.1715 7.03671 29.5148 7.00341 29.9179C6.9701 30.321 7.18304 30.7043 7.54268 30.8893C7.90195 31.0742 8.33756 31.0244 8.64596 30.7631C8.95471 30.5019 9.07559 30.0804 8.95246 29.6952C8.87125 29.4425 8.69312 29.2322 8.45734 29.1109C8.2212 28.9892 7.94686 28.9668 7.69387 29.048Z" fill="white"/>
<path id="Vector_3" d="M17.9443 17.7714C18.0638 17.9135 18.2405 17.9971 18.4278 17.9999C18.6151 18.003 18.7944 17.9251 18.9185 17.7869C19.1075 17.5762 23.5587 12.5954 24.3922 10.192C25.3559 7.41354 25.1729 5.14314 23.8481 3.44394C22.3382 1.50726 19.7026 0.92173 18.3952 1.00817C15.9262 1.1708 14.1251 2.05909 13.0418 3.6488C11.7862 5.4909 11.8017 8.01449 12.3736 9.6982C13.1863 12.0901 17.7504 17.5409 17.9443 17.7714L17.9443 17.7714ZM14.1059 4.35074C14.9566 3.10231 16.4287 2.40088 18.481 2.26582C19.7958 2.17916 21.7964 2.88343 22.8316 4.21122C23.8793 5.55531 23.9965 7.43033 23.1798 9.78514C22.6268 11.3794 19.9239 14.6944 18.4536 16.39C16.9478 14.5458 14.1354 10.9078 13.5887 9.29894C13.2358 8.26041 12.9478 6.05001 14.106 4.35081L14.1059 4.35074Z" fill="white"/>
<path id="Vector_4" d="M33.6249 21.9622C21.527 16.1763 23.7289 17.2423 21.5123 16.1361V16.1358C21.3649 16.0622 21.1963 16.0546 21.0438 16.1141C20.8913 16.174 20.7669 16.2963 20.6986 16.4544C20.63 16.6125 20.6229 16.7935 20.6786 16.9571C20.7344 17.1208 20.8486 17.254 20.996 17.3273L21.4666 17.5623L18.5052 19.1952L15.4183 17.4933L15.8972 17.2525V17.2522C16.0442 17.1786 16.1582 17.0449 16.2134 16.8809C16.2689 16.7169 16.2612 16.5362 16.1924 16.3784C16.1232 16.2203 15.9986 16.0983 15.8458 16.039C15.693 15.9798 15.5246 15.9883 15.3776 16.0625L3.35805 21.9701C3.14049 22.0778 3.00082 22.311 3 22.5679V27.228C3 27.5909 3.27414 27.8851 3.61224 27.8851C3.95034 27.8851 4.22448 27.5909 4.22448 27.228V23.6441L17.7204 31.085V34.2676L10.5456 30.3121V30.3118C10.4013 30.2323 10.2332 30.2173 10.0785 30.2704C9.92381 30.3238 9.79535 30.4408 9.721 30.596C9.64693 30.7509 9.63299 30.9313 9.68274 31.0973C9.73248 31.2633 9.84154 31.4012 9.98612 31.4807L18.053 35.9281H18.0533C18.2271 36.0229 18.4329 36.024 18.6076 35.9311L33.6625 27.8151V27.8149C33.8694 27.7034 34 27.4764 34 27.2279V22.5678C33.9986 22.3038 33.8513 22.0656 33.6253 21.9621L33.6249 21.9622ZM18.3356 29.9467L14.8557 28.028L18.5144 26.0108L22.028 27.9562L18.3356 29.9467ZM10.0091 25.3561L13.6782 23.3333L17.177 25.2704L13.5153 27.2891L10.0091 25.3561ZM22.8774 18.2611L26.6328 20.0572L23.3503 21.8671L19.8438 19.9337L22.8774 18.2611ZM18.504 20.6723L22.0104 22.6056L18.5149 24.5327L15.0158 22.5953L18.504 20.6723ZM23.3803 27.2267L19.8517 25.2731L23.3499 23.3444L26.9253 25.3156L23.3803 27.2267ZM28.2804 24.5852L24.69 22.6056L28.0677 20.7432L31.9568 22.6033L28.2804 24.5852ZM17.1642 19.9337L13.679 21.8553L10.3286 20.0003L14.0124 18.196L17.1642 19.9337ZM8.91114 20.6943L12.3405 22.593L8.66869 24.6175L5.01413 22.6027L8.91114 20.6943ZM18.9435 34.2784V31.089L32.7739 23.6332V26.8226L18.9435 34.2784Z" fill="white"/>
<path id="Vector_5" d="M18.5 10C19.163 10 19.7988 9.73664 20.2677 9.26797C20.7367 8.799 21 8.16318 21 7.50014C21 6.8371 20.7367 6.20103 20.2677 5.73203C19.7991 5.26333 19.163 5 18.5 5C17.837 5 17.2012 5.26336 16.7323 5.73203C16.2633 6.201 16 6.83682 16 7.49986C16.0008 8.16294 16.2644 8.79822 16.7331 9.26687C17.2018 9.73557 17.8373 9.99945 18.5 10ZM18.5 6.19773C18.8454 6.19773 19.1767 6.33489 19.4208 6.579C19.6651 6.82337 19.8023 7.15465 19.8023 7.49981C19.8023 7.84525 19.6651 8.17652 19.4208 8.42089C19.1767 8.665 18.8454 8.80216 18.5 8.80216C18.1546 8.80216 17.8233 8.665 17.5792 8.42089C17.3349 8.17652 17.1977 7.84524 17.1977 7.49981C17.1983 7.15463 17.3354 6.82363 17.5795 6.57955C17.8239 6.33544 18.1549 6.198 18.5 6.19773Z" fill="white"/>
</g>
</svg>
