<svg width="37" height="37" viewBox="0 0 37 37" fill="none" xmlns="http://www.w3.org/2000/svg">
<g id="illustration/darkmode/name">
<path id="Vector" d="M34.5662 29H2.4338C1.78832 29 1.16939 28.7423 0.712842 28.284C0.256541 27.8253 0 27.2034 0 26.555V6.44468C0.00154858 5.79681 0.258351 5.17592 0.714626 4.71758C1.17067 4.25948 1.78881 4.00153 2.4338 4H34.5662C35.2112 4.00156 35.8293 4.25951 36.2854 4.71758C36.7417 5.17593 36.9985 5.79686 37 6.44468V26.555C37 27.2034 36.7435 27.8253 36.2872 28.284C35.8306 28.7423 35.2117 29 34.5662 29ZM2.4338 5.66684C2.00614 5.66684 1.65925 6.01502 1.65925 6.44488V26.5552C1.6577 26.7626 1.73848 26.9622 1.88404 27.1092C2.0296 27.2565 2.2273 27.3392 2.43377 27.3392H34.5662C34.7726 27.3392 34.9703 27.2565 35.1159 27.1092C35.2615 26.9622 35.3423 26.7626 35.3407 26.5552V6.44488C35.3407 6.01504 34.9938 5.66684 34.5661 5.66684H2.4338Z" fill="white"/>
<path id="Vector_2" d="M13 32C12.4477 32 12 31.6937 12 31.3158V28.6844C12 28.3065 12.4477 28 13 28C13.5523 28 14 28.3065 14 28.6844V31.3158C14 31.6937 13.5523 32 13 32Z" fill="white"/>
<path id="Vector_3" d="M24 32C23.4477 32 23 31.6937 23 31.3158V28.6844C23 28.3065 23.4477 28 24 28C24.5523 28 25 28.3065 25 28.6844V31.3158C25 31.6937 24.5523 32 24 32Z" fill="white"/>
<path id="Vector_4" d="M28.166 35H8.83413C8.37398 34.9944 8.00313 34.661 8 34.2501C8.00156 33.3893 8.38463 32.5644 9.06586 31.9552C9.74685 31.3462 10.6702 31.0028 11.634 31H25.366C26.3298 31.0028 27.2532 31.3462 27.9341 31.9552C28.6154 32.5643 28.9985 33.3893 29 34.2501C28.9969 34.661 28.626 34.9944 28.1659 35H28.166ZM9.85545 33.5052H27.1453C26.9896 33.2069 26.7427 32.9539 26.4331 32.7751C26.1237 32.5965 25.7638 32.4993 25.3954 32.4949H11.6348C11.2613 32.4944 10.8952 32.5893 10.5801 32.7683C10.265 32.9474 10.0135 33.2029 9.85565 33.5052L9.85545 33.5052Z" fill="white"/>
<path id="Vector_5" d="M36.1733 25H0.82668C0.370116 25 0 24.7762 0 24.5C0 24.2239 0.370103 24 0.82668 24H36.1733C36.6299 24 37 24.2238 37 24.5C37 24.7761 36.6299 25 36.1733 25Z" fill="white"/>
<path id="Vector_6" d="M20.1662 27H17.8338C17.3733 27 17 26.7762 17 26.5001C17 26.224 17.3733 26 17.8338 26H20.1662C20.6267 26 21 26.224 21 26.5001C21 26.7762 20.6267 27 20.1662 27Z" fill="white"/>
<path id="Vector_7" d="M24.9997 12.6511C24.9981 13.0516 24.97 13.4512 24.916 13.8479C24.8647 14.2542 24.7766 14.6546 24.6526 15.0446C24.5318 15.4092 24.3734 15.7602 24.1799 16.0917C23.9993 16.4115 23.7666 16.6986 23.4917 16.9414C23.2168 17.1851 22.9007 17.3777 22.5579 17.5099C22.1753 17.6533 21.7695 17.7244 21.3609 17.7193C21.1173 17.7231 20.8741 17.6969 20.6369 17.6416C20.4261 17.5999 20.2238 17.523 20.0384 17.4143C19.8797 17.316 19.7413 17.188 19.6315 17.0373C19.5232 16.8781 19.4423 16.7024 19.3921 16.5167C19.209 16.7173 19.0086 16.9016 18.7936 17.0673C18.6041 17.2083 18.404 17.3344 18.1951 17.4442C18.0048 17.5379 17.8036 17.6085 17.5966 17.6536C17.3999 17.6963 17.1993 17.7185 16.9981 17.7193C16.7688 17.7241 16.5404 17.6918 16.3216 17.6237C16.1383 17.5684 15.966 17.4813 15.8129 17.3664C15.6694 17.2639 15.5457 17.1362 15.4479 16.9893C15.3544 16.8389 15.278 16.6783 15.2205 16.5106C15.1577 16.3321 15.1136 16.1478 15.0888 15.9603C15.0637 15.7618 15.0516 15.5617 15.053 15.3619C15.057 15.0737 15.077 14.786 15.1128 14.5002C15.1585 14.1724 15.2285 13.8484 15.3223 13.5307C15.4177 13.215 15.5419 12.9086 15.6932 12.6153C15.8484 12.3105 16.0504 12.0319 16.2917 11.7896C16.5281 11.5412 16.8081 11.3384 17.1178 11.1912C17.4563 11.0398 17.8239 10.9642 18.1951 10.9698C18.3682 10.9703 18.5408 10.9904 18.7097 11.0296C18.8713 11.0662 19.0265 11.1269 19.1706 11.2091C19.3253 11.2989 19.4695 11.4052 19.6015 11.5262C19.7568 11.6787 19.9029 11.8406 20.0384 12.011L20.176 11.3828C20.1992 11.2797 20.2738 11.196 20.3734 11.1613C20.5671 11.1017 20.7697 11.0774 20.9719 11.0895C21.0916 11.0822 21.2116 11.0822 21.331 11.0895C21.4072 11.0967 21.4817 11.1148 21.5525 11.1434C21.5971 11.1637 21.6348 11.1971 21.6602 11.239C21.6709 11.2802 21.6709 11.3235 21.6602 11.3646L20.954 15.0087C20.8688 15.2999 20.8816 15.6111 20.9898 15.8942C21.1149 16.0997 21.3505 16.2105 21.5883 16.1755C21.7665 16.1728 21.9405 16.121 22.0912 16.0259C22.2547 15.9143 22.395 15.7722 22.5042 15.6071C22.6253 15.4201 22.7239 15.2192 22.7973 15.0087C22.882 14.7726 22.9502 14.5306 23.0009 14.2848C23.0538 14.0318 23.0918 13.7762 23.1145 13.5187C23.1145 13.2553 23.1503 13.0101 23.1503 12.7707H23.1506C23.153 12.3513 23.0926 11.9338 22.971 11.5323C22.8511 11.1405 22.6328 10.7863 22.3365 10.5031C21.9979 10.1791 21.5878 9.93944 21.1395 9.80296C20.5009 9.6133 19.8364 9.52648 19.1706 9.54572C18.6814 9.53904 18.193 9.59113 17.7163 9.70118C17.2995 9.79574 16.8971 9.94453 16.5193 10.1441C16.1824 10.3263 15.8725 10.5539 15.5975 10.8202C15.3397 11.0641 15.1091 11.3347 14.9093 11.6279C14.6971 11.9373 14.5186 12.2682 14.3765 12.6153C14.237 12.9508 14.1251 13.297 14.0414 13.6504C13.9637 13.9961 13.9038 14.3457 13.8619 14.6975C13.8266 15.0335 13.8085 15.3709 13.8079 15.7088C13.801 16.2458 13.8672 16.7814 14.0056 17.3003C14.1205 17.7523 14.3541 18.1655 14.6819 18.4971C15.0461 18.8334 15.4882 19.0741 15.9686 19.1972C16.6216 19.3855 17.3 19.4723 17.9794 19.4544C18.3636 19.4568 18.7475 19.4328 19.1286 19.3826C19.4757 19.3347 19.7749 19.2808 20.0384 19.2271C20.3018 19.1731 20.5051 19.1194 20.6369 19.0716C20.7453 19.035 20.8578 19.011 20.9719 18.9998C21.0085 18.9968 21.0446 19.0075 21.0737 19.0297C21.1058 19.0583 21.1285 19.0959 21.1394 19.1373C21.1394 19.1913 21.1394 19.2629 21.1752 19.3588C21.211 19.4544 21.1752 19.5682 21.1752 19.7058V20.0108H21.1755C21.1702 20.0814 21.16 20.1514 21.1456 20.2203C21.1306 20.2694 21.1124 20.3172 21.0916 20.364C21.0705 20.4049 21.0422 20.4412 21.008 20.4716C20.9139 20.5333 20.8111 20.5798 20.7026 20.6092C20.4768 20.6808 20.247 20.7388 20.0143 20.7828C19.733 20.8427 19.4159 20.8905 19.0089 20.9324C18.5919 20.9802 18.1722 21.0021 17.7521 20.9981C16.8555 21.0166 15.9614 20.8977 15.1008 20.6453C14.4313 20.4447 13.8168 20.0926 13.3053 19.616C12.8535 19.1638 12.5172 18.6097 12.3237 18.0004C12.0998 17.3027 11.9905 16.5732 12.0006 15.8405C12.0001 15.3839 12.0322 14.9279 12.0963 14.476C12.1564 14.0106 12.2523 13.5504 12.3835 13.0997C12.5171 12.647 12.6892 12.2067 12.8984 11.7833C13.1084 11.3626 13.3569 10.9619 13.6404 10.5866C13.9361 10.202 14.2733 9.85095 14.6458 9.53952C15.0348 9.2139 15.4631 8.93849 15.9208 8.72001C16.4156 8.47933 16.9382 8.30035 17.4769 8.18735C18.0946 8.0578 18.7246 7.99556 19.356 8.00197C20.2214 7.98354 21.0849 8.0944 21.9175 8.33107C22.5603 8.52234 23.1557 8.84636 23.6652 9.2823C24.1196 9.68111 24.4673 10.187 24.6767 10.7544C24.8966 11.3624 25.0059 12.0045 24.9998 12.651L24.9997 12.6511ZM19.5115 13.3812H19.5117C19.3819 13.1269 19.2074 12.898 18.9969 12.7051C18.8339 12.5547 18.6201 12.4714 18.3984 12.4717C18.2228 12.4735 18.051 12.5232 17.9017 12.6154C17.7475 12.7099 17.6118 12.8317 17.5006 12.9744C17.3828 13.1304 17.2861 13.3013 17.2134 13.483C17.1341 13.6777 17.0681 13.8775 17.016 14.0814C16.9655 14.278 16.9297 14.478 16.9083 14.6797C16.8858 14.8443 16.8738 15.0102 16.8722 15.1763C16.8589 15.4453 16.9211 15.7127 17.0518 15.9483C17.1848 16.1449 17.4135 16.2547 17.6503 16.2355C17.7603 16.2352 17.8694 16.217 17.9736 16.1815C18.0978 16.1409 18.2164 16.0845 18.3265 16.014C18.4628 15.9189 18.5929 15.815 18.7155 15.7028C18.8593 15.5711 19.0089 15.4215 19.1823 15.242L19.5115 13.3812Z" fill="white"/>
</g>
</svg>
