<svg width="37" height="37" viewBox="0 0 37 37" fill="none" xmlns="http://www.w3.org/2000/svg">
<path d="M32.7846 35.9998C31.6406 35.9454 30.5817 35.3806 29.9007 34.4614C27.5574 32.1129 22.1526 26.6961 20.0585 24.6075C17.7517 25.8811 15.0948 26.3767 12.4832 26.0206C9.87154 25.6644 7.44476 24.4757 5.56437 22.6311C-3.09925 14.0824 5.31344 -0.66499 17.0687 2.41649C24.4655 3.83583 28.6313 13.6914 24.6287 20.0409L35.0767 30.4744C35.6725 31.0858 36.0039 31.9067 36 32.7597C35.9962 33.613 35.6571 34.4304 35.0555 35.0364C34.4542 35.6424 33.6388 35.9883 32.7846 35.9998ZM21.3147 23.8055C23.855 26.3407 28.9681 31.4699 31.5209 34.0262C31.9745 34.4657 32.6273 34.6337 33.2371 34.467C33.8472 34.3002 34.3233 33.8243 34.4898 33.2153C34.6562 32.6061 34.488 31.9548 34.0474 31.5018L23.8182 21.2881C23.1211 22.2534 22.2767 23.1027 21.3147 23.8055ZM13.9864 3.48296C4.84804 3.39012 -0.150769 15.1406 6.60239 21.6121C11.0068 26.371 19.8208 25.3922 23.0953 19.745L23.0963 19.7433L23.0981 19.741C27.6407 12.973 22.1604 3.16606 13.9864 3.48296ZM14.0431 23.1008C7.31748 23.2737 2.7 15.3597 6.27204 9.644C9.75924 3.12517 19.8161 3.72409 22.4476 10.7486C23.5855 13.5281 23.2537 16.6922 21.5634 19.1759C19.8734 21.6597 17.05 23.1338 14.0431 23.1008ZM13.9819 6.51524C11.983 6.54894 10.0783 7.36852 8.68123 8.79662C7.28415 10.2247 6.50787 12.1457 6.5206 14.142C6.5336 16.1384 7.33488 18.0488 8.7502 19.4587C11.848 22.846 18.2507 22.1407 20.5022 18.1467C23.8037 13.3554 19.7734 6.22837 13.9819 6.51524Z" fill="white"/>
<path fill-rule="evenodd" clip-rule="evenodd" d="M16.707 11.293C16.316 10.902 15.684 10.902 15.293 11.293L14 12.586L12.707 11.293C12.316 10.902 11.684 10.902 11.293 11.293C10.902 11.684 10.902 12.316 11.293 12.707L12.586 14L11.293 15.293C10.902 15.684 10.902 16.316 11.293 16.707C11.488 16.902 11.744 17 12 17C12.256 17 12.512 16.902 12.707 16.707L14 15.414L15.293 16.707C15.488 16.902 15.744 17 16 17C16.256 17 16.512 16.902 16.707 16.707C17.098 16.316 17.098 15.684 16.707 15.293L15.414 14L16.707 12.707C17.098 12.316 17.098 11.684 16.707 11.293ZM14 22C9.589 22 6 18.411 6 14C6 9.589 9.589 6 14 6C18.411 6 22 9.589 22 14C22 18.411 18.411 22 14 22Z" fill="white"/>
</svg>
