<svg width="82" height="82" viewBox="0 0 82 82" fill="none" xmlns="http://www.w3.org/2000/svg">
<g id="illustration/darkmode/shirt">
<path id="Vector" fill-rule="evenodd" clip-rule="evenodd" d="M82 8.2C82 6.02545 81.1375 3.939 79.5992 2.40077C78.061 0.862546 75.9744 0 73.8 0H8.2C6.02545 0 3.939 0.862471 2.40077 2.40077C0.862547 3.939 0 6.02564 0 8.2V73.8C0 75.9745 0.862472 78.061 2.40077 79.5992C3.939 81.1375 6.02564 82 8.2 82H73.8C75.9745 82 78.061 81.1375 79.5992 79.5992C81.1375 78.061 82 75.9744 82 73.8V8.2ZM78.72 8.2V73.8C78.72 75.1054 78.2017 76.3552 77.2799 77.2798C76.3552 78.2016 75.1053 78.7199 73.8001 78.7199H8.20008C6.89467 78.7199 5.64486 78.2016 4.72028 77.2798C3.7985 76.3551 3.28015 75.1053 3.28015 73.8V8.2C3.28015 6.8946 3.7985 5.64479 4.72028 4.7202C5.64497 3.79843 6.89482 3.28007 8.20008 3.28007H73.8001C75.1055 3.28007 76.3553 3.79843 77.2799 4.7202C78.2017 5.6449 78.72 6.89475 78.72 8.2Z" fill="white"/>
<path id="Vector_2" fill-rule="evenodd" clip-rule="evenodd" d="M82 8.2C82 6.02545 81.1375 3.939 79.5992 2.40077C78.061 0.862546 75.9744 0 73.8 0H8.2C6.02545 0 3.939 0.862471 2.40077 2.40077C0.862547 3.939 0 6.02564 0 8.2V18.04C0 18.9449 0.735076 19.68 1.64 19.68H80.36C81.2649 19.68 82 18.9449 82 18.04V8.2ZM78.72 8.2V16.4H3.28V8.2C3.28 6.8946 3.79835 5.64479 4.72013 4.7202C5.64482 3.79843 6.89467 3.28007 8.19993 3.28007H73.7999C75.1053 3.28007 76.3551 3.79843 77.2797 4.7202C78.2015 5.6449 78.72 6.89475 78.72 8.2Z" fill="white"/>
<path id="Vector_3" fill-rule="evenodd" clip-rule="evenodd" d="M11.4796 4.91992C8.76411 4.91992 6.55957 7.12446 6.55957 9.83992C6.55957 12.5554 8.76411 14.7599 11.4796 14.7599C14.195 14.7599 16.3996 12.5554 16.3996 9.83992C16.3996 7.12446 14.195 4.91992 11.4796 4.91992ZM11.4796 8.19992C12.3845 8.19992 13.1196 8.935 13.1196 9.83992C13.1196 10.7448 12.3845 11.4799 11.4796 11.4799C10.5746 11.4799 9.83957 10.7448 9.83957 9.83992C9.83957 8.935 10.5746 8.19992 11.4796 8.19992Z" fill="white"/>
<path id="Vector_4" fill-rule="evenodd" clip-rule="evenodd" d="M22.96 4.91992C20.2446 4.91992 18.04 7.12446 18.04 9.83992C18.04 12.5554 20.2446 14.7599 22.96 14.7599C25.6755 14.7599 27.88 12.5554 27.88 9.83992C27.88 7.12446 25.6755 4.91992 22.96 4.91992ZM22.96 8.19992C23.865 8.19992 24.6 8.935 24.6 9.83992C24.6 10.7448 23.865 11.4799 22.96 11.4799C22.0551 11.4799 21.32 10.7448 21.32 9.83992C21.32 8.935 22.0551 8.19992 22.96 8.19992Z" fill="white"/>
<path id="Vector_5" fill-rule="evenodd" clip-rule="evenodd" d="M34.4395 4.91992C31.7241 4.91992 29.5195 7.12446 29.5195 9.83992C29.5195 12.5554 31.7241 14.7599 34.4395 14.7599C37.155 14.7599 39.3595 12.5554 39.3595 9.83992C39.3595 7.12446 37.155 4.91992 34.4395 4.91992ZM34.4395 8.19992C35.3445 8.19992 36.0795 8.935 36.0795 9.83992C36.0795 10.7448 35.3445 11.4799 34.4395 11.4799C33.5346 11.4799 32.7995 10.7448 32.7995 9.83992C32.7995 8.935 33.5346 8.19992 34.4395 8.19992Z" fill="white"/>
<path id="Vector_6" fill-rule="evenodd" clip-rule="evenodd" d="M49.2597 23.5545C48.354 23.5545 47.6197 24.2889 47.6197 25.1945C47.6197 28.8486 44.6545 31.8137 41.0004 31.8137C37.3463 31.8137 34.3812 28.8486 34.3812 25.1945C34.3812 24.2889 33.6469 23.5545 32.7412 23.5545H26.5487C26.2112 23.5545 25.8832 23.6592 25.6072 23.8532L15.4589 30.9572C14.718 31.4755 14.5371 32.4991 15.0555 33.24L20.9792 41.6963C21.4975 42.4372 22.5211 42.618 23.2621 42.0997L24.9087 40.948V62.3561C24.9087 63.2617 25.6401 63.9961 26.5487 63.9961H55.4483C56.3539 63.9961 57.0883 63.2617 57.0883 62.3561V40.9443L58.7385 42.0989C59.4794 42.6172 60.503 42.4364 61.0214 41.6954L66.9451 33.2392C67.4634 32.4983 67.2826 31.4748 66.5417 30.9564L56.3934 23.8524C56.1173 23.6584 55.7893 23.5537 55.4518 23.5537L49.2597 23.5545ZM50.7613 26.8345H54.9374L63.3175 32.7027L59.2767 38.472L56.3899 36.4513C55.8884 36.1006 55.2354 36.0581 54.6914 36.34C54.1496 36.6219 53.8084 37.1827 53.8084 37.7933V60.7158H28.1888V37.7952C28.1888 37.1853 27.8476 36.6245 27.3036 36.3419C26.7619 36.0571 26.1059 36.1025 25.6073 36.4502L22.724 38.4709L18.6833 32.7017L27.0634 26.8335H31.2395C32.02 31.5169 36.0965 35.0927 41.0004 35.0927C45.9043 35.0927 49.9808 31.5169 50.7613 26.8335L50.7613 26.8345Z" fill="white"/>
<path id="Vector_7" fill-rule="evenodd" clip-rule="evenodd" d="M37.6898 73.8005H44.279C45.184 73.8005 45.919 73.0654 45.919 72.1605C45.919 71.2556 45.184 70.5205 44.279 70.5205H37.6898C36.7841 70.5205 36.0498 71.2556 36.0498 72.1605C36.0498 73.0654 36.7841 73.8005 37.6898 73.8005Z" fill="white"/>
<path id="Vector_8" fill-rule="evenodd" clip-rule="evenodd" d="M50.8099 73.8005H52.4792C53.3841 73.8005 54.1192 73.0654 54.1192 72.1605C54.1192 71.2556 53.3841 70.5205 52.4792 70.5205H50.8099C49.9043 70.5205 49.1699 71.2556 49.1699 72.1605C49.1699 73.0654 49.9043 73.8005 50.8099 73.8005Z" fill="white"/>
<path id="Vector_9" fill-rule="evenodd" clip-rule="evenodd" d="M29.4896 73.8005H31.1589C32.0638 73.8005 32.7989 73.0654 32.7989 72.1605C32.7989 71.2556 32.0638 70.5205 31.1589 70.5205H29.4896C28.584 70.5205 27.8496 71.2556 27.8496 72.1605C27.8496 73.0654 28.584 73.8005 29.4896 73.8005Z" fill="white"/>
</g>
</svg>
