<svg width="37" height="37" viewBox="0 0 37 37" fill="none" xmlns="http://www.w3.org/2000/svg">
<path fill-rule="evenodd" clip-rule="evenodd" d="M37 3.7C37 2.7188 36.6108 1.77735 35.9167 1.08328C35.2226 0.389198 34.2811 0 33.3 0H3.7C2.7188 0 1.77735 0.389164 1.08328 1.08328C0.389198 1.77735 0 2.71889 0 3.7V33.3C0 34.2812 0.389164 35.2226 1.08328 35.9167C1.77735 36.6108 2.71889 37 3.7 37H33.3C34.2812 37 35.2226 36.6108 35.9167 35.9167C36.6108 35.2226 37 34.2811 37 33.3V3.7ZM35.52 3.7V33.3C35.52 33.889 35.2861 34.453 34.8702 34.8702C34.4529 35.2861 33.889 35.52 33.3 35.52H3.70003C3.11101 35.52 2.54707 35.2861 2.12988 34.8702C1.71396 34.4529 1.48007 33.889 1.48007 33.3V3.7C1.48007 3.11098 1.71396 2.54704 2.12988 2.12985C2.54712 1.71392 3.11108 1.48003 3.70003 1.48003H33.3C33.8891 1.48003 34.453 1.71392 34.8702 2.12985C35.2861 2.54709 35.52 3.11104 35.52 3.7Z" fill="white"/>
<path fill-rule="evenodd" clip-rule="evenodd" d="M37 3.7C37 2.7188 36.6108 1.77735 35.9167 1.08328C35.2226 0.389198 34.2811 0 33.3 0H3.7C2.7188 0 1.77735 0.389164 1.08328 1.08328C0.389198 1.77735 0 2.71889 0 3.7V8.14C0 8.54832 0.331681 8.88 0.74 8.88H36.26C36.6683 8.88 37 8.54832 37 8.14V3.7ZM35.52 3.7V7.4H1.48V3.7C1.48 3.11098 1.71389 2.54704 2.12981 2.12985C2.54705 1.71392 3.11101 1.48003 3.69997 1.48003H33.3C33.889 1.48003 34.4529 1.71392 34.8701 2.12985C35.286 2.54709 35.52 3.11104 35.52 3.7Z" fill="white"/>
<path fill-rule="evenodd" clip-rule="evenodd" d="M5.18002 2.21997C3.95475 2.21997 2.96002 3.2147 2.96002 4.43997C2.96002 5.66524 3.95475 6.65997 5.18002 6.65997C6.40529 6.65997 7.40002 5.66524 7.40002 4.43997C7.40002 3.2147 6.40529 2.21997 5.18002 2.21997ZM5.18002 3.69997C5.58834 3.69997 5.92002 4.03165 5.92002 4.43997C5.92002 4.84829 5.58834 5.17997 5.18002 5.17997C4.7717 5.17997 4.44002 4.84829 4.44002 4.43997C4.44002 4.03165 4.7717 3.69997 5.18002 3.69997Z" fill="white"/>
<path fill-rule="evenodd" clip-rule="evenodd" d="M10.36 2.21997C9.13474 2.21997 8.14001 3.2147 8.14001 4.43997C8.14001 5.66524 9.13474 6.65997 10.36 6.65997C11.5853 6.65997 12.58 5.66524 12.58 4.43997C12.58 3.2147 11.5853 2.21997 10.36 2.21997ZM10.36 3.69997C10.7683 3.69997 11.1 4.03165 11.1 4.43997C11.1 4.84829 10.7683 5.17997 10.36 5.17997C9.9517 5.17997 9.62001 4.84829 9.62001 4.43997C9.62001 4.03165 9.9517 3.69997 10.36 3.69997Z" fill="white"/>
<path fill-rule="evenodd" clip-rule="evenodd" d="M15.54 2.21997C14.3147 2.21997 13.32 3.2147 13.32 4.43997C13.32 5.66524 14.3147 6.65997 15.54 6.65997C16.7653 6.65997 17.76 5.66524 17.76 4.43997C17.76 3.2147 16.7653 2.21997 15.54 2.21997ZM15.54 3.69997C15.9483 3.69997 16.28 4.03165 16.28 4.43997C16.28 4.84829 15.9483 5.17997 15.54 5.17997C15.1317 5.17997 14.8 4.84829 14.8 4.43997C14.8 4.03165 15.1317 3.69997 15.54 3.69997Z" fill="white"/>
<path fill-rule="evenodd" clip-rule="evenodd" d="M22.2271 10.628C21.8184 10.628 21.4871 10.9594 21.4871 11.368C21.4871 13.0169 20.1491 14.3548 18.5003 14.3548C16.8515 14.3548 15.5136 13.0169 15.5136 11.368C15.5136 10.9594 15.1823 10.628 14.7736 10.628H11.9795C11.8272 10.628 11.6792 10.6753 11.5546 10.7628L6.9755 13.9683C6.64118 14.2022 6.55958 14.664 6.79347 14.9983L9.46636 18.814C9.70025 19.1483 10.1621 19.2299 10.4964 18.996L11.2394 18.4763V28.1361C11.2394 28.5447 11.5694 28.8761 11.9794 28.8761H25.0195C25.4281 28.8761 25.7595 28.5447 25.7595 28.1361V18.4746L26.5041 18.9956C26.8384 19.2295 27.3003 19.1479 27.5342 18.8136L30.2071 14.998C30.441 14.6637 30.3594 14.2018 30.025 13.9679L25.4459 10.7625C25.3214 10.6749 25.1734 10.6277 25.0211 10.6277L22.2271 10.628ZM22.9046 12.108H24.789L28.5702 14.7559L26.747 17.3591L25.4444 16.4473C25.2181 16.2891 24.9234 16.2699 24.678 16.3971C24.4335 16.5243 24.2795 16.7774 24.2795 17.0529V27.396H12.7195V17.0537C12.7195 16.7785 12.5655 16.5255 12.3201 16.398C12.0756 16.2694 11.7796 16.2899 11.5546 16.4468L10.2537 17.3586L8.4304 14.7554L12.2117 12.1076H14.096C14.4482 14.2208 16.2876 15.8343 18.5003 15.8343C20.713 15.8343 22.5525 14.2208 22.9046 12.1076L22.9046 12.108Z" fill="white"/>
<path fill-rule="evenodd" clip-rule="evenodd" d="M17.0064 33.3001H19.9796C20.388 33.3001 20.7196 32.9684 20.7196 32.5601C20.7196 32.1517 20.388 31.8201 19.9796 31.8201H17.0064C16.5978 31.8201 16.2664 32.1517 16.2664 32.5601C16.2664 32.9684 16.5978 33.3001 17.0064 33.3001Z" fill="white"/>
<path fill-rule="evenodd" clip-rule="evenodd" d="M22.9265 33.3001H23.6797C24.088 33.3001 24.4197 32.9684 24.4197 32.5601C24.4197 32.1517 24.088 31.8201 23.6797 31.8201H22.9265C22.5178 31.8201 22.1865 32.1517 22.1865 32.5601C22.1865 32.9684 22.5178 33.3001 22.9265 33.3001Z" fill="white"/>
<path fill-rule="evenodd" clip-rule="evenodd" d="M13.3065 33.3001H14.0597C14.468 33.3001 14.7997 32.9684 14.7997 32.5601C14.7997 32.1517 14.468 31.8201 14.0597 31.8201H13.3065C12.8978 31.8201 12.5665 32.1517 12.5665 32.5601C12.5665 32.9684 12.8978 33.3001 13.3065 33.3001Z" fill="white"/>
</svg>
